<?xml version="1.0" encoding="utf-8"?>
<!-- Generator: Adobe Illustrator 19.1.0, SVG Export Plug-In . SVG Version: 6.00 Build 0)  -->
<svg version="1.1" id="diagrams" xmlns="http://www.w3.org/2000/svg" xmlns:xlink="http://www.w3.org/1999/xlink" x="0px" y="0px"
	 viewBox="14 198 640 398" style="enable-background:new 14 198 640 398;" xml:space="preserve">
<style type="text/css">
	.st0{opacity:0.15;fill:#A5A5A5;enable-background:new    ;}
	.st1{fill:#A5A5A5;}
	.st2{opacity:0.2;fill:#DB4E4E;enable-background:new    ;}
	.st3{fill:#DB4E4E;}
	.st4{fill:none;stroke:#A5A5A5;stroke-width:1.5;stroke-linecap:round;stroke-linejoin:round;stroke-miterlimit:10;}
	
		.st5{fill:none;stroke:#4368B1;stroke-width:1.5;stroke-linecap:round;stroke-linejoin:round;stroke-miterlimit:10;stroke-dasharray:10,10;}
	.st6{enable-background:new    ;}
	.st7{fill:#27272B;}
	
		.st8{fill:none;stroke:#DB4E4E;stroke-width:1.5;stroke-linecap:round;stroke-linejoin:round;stroke-miterlimit:10;stroke-dasharray:10,10;}
</style>
<g>
	<path class="st0" d="M126.9,277.3c-1.2,0-2.3-1-2.3-2.3v-29c0-1.2,1-2.3,2.3-2.3h524c1.2,0,2.3,1,2.3,2.3v29c0,1.2-1,2.3-2.3,2.3
		H126.9z"/>
	<path class="st1" d="M650.9,244.5c0.8,0,1.5,0.7,1.5,1.5v29c0,0.8-0.7,1.5-1.5,1.5h-524c-0.8,0-1.5-0.7-1.5-1.5v-29
		c0-0.8,0.7-1.5,1.5-1.5H650.9 M650.9,243h-524c-1.7,0-3,1.3-3,3v29c0,1.7,1.3,3,3,3h524c1.7,0,3-1.3,3-3v-29
		C653.9,244.4,652.5,243,650.9,243L650.9,243z"/>
</g>
<g>
	<path class="st2" d="M126.9,388c-1.2,0-2.3-1-2.3-2.3v-39c0-1.2,1-2.3,2.3-2.3h388.7c1.2,0,2.3,1,2.3,2.3v39c0,1.2-1,2.3-2.3,2.3
		H126.9z"/>
	<path class="st3" d="M515.6,345.2c0.8,0,1.5,0.7,1.5,1.5v39c0,0.8-0.7,1.5-1.5,1.5H126.9c-0.8,0-1.5-0.7-1.5-1.5v-39
		c0-0.8,0.7-1.5,1.5-1.5H515.6 M515.6,343.7H126.9c-1.7,0-3,1.3-3,3v39c0,1.7,1.3,3,3,3h388.7c1.7,0,3-1.3,3-3v-39
		C518.6,345.1,517.3,343.7,515.6,343.7L515.6,343.7z"/>
</g>
<g>
	<path class="st2" d="M126.9,455.2c-1.2,0-2.3-1-2.3-2.3v-39c0-1.2,1-2.3,2.3-2.3h388.7c1.2,0,2.3,1,2.3,2.3v39c0,1.2-1,2.3-2.3,2.3
		H126.9z"/>
	<path class="st3" d="M515.6,412.4c0.8,0,1.5,0.7,1.5,1.5v39c0,0.8-0.7,1.5-1.5,1.5H126.9c-0.8,0-1.5-0.7-1.5-1.5v-39
		c0-0.8,0.7-1.5,1.5-1.5H515.6 M515.6,410.9H126.9c-1.7,0-3,1.3-3,3v39c0,1.7,1.3,3,3,3h388.7c1.7,0,3-1.3,3-3v-39
		C518.6,412.3,517.3,410.9,515.6,410.9L515.6,410.9z"/>
</g>
<g>
	<path class="st0" d="M126.9,507.6c-1.2,0-2.3-1-2.3-2.3v-29c0-1.2,1-2.3,2.3-2.3H651c1.2,0,2.3,1,2.3,2.3v29c0,1.2-1,2.3-2.3,2.3
		H126.9z"/>
	<path class="st1" d="M651,474.9c0.8,0,1.5,0.7,1.5,1.5v29c0,0.8-0.7,1.5-1.5,1.5H126.9c-0.8,0-1.5-0.7-1.5-1.5v-29
		c0-0.8,0.7-1.5,1.5-1.5H651 M651,473.4H126.9c-1.7,0-3,1.3-3,3v29c0,1.7,1.3,3,3,3H651c1.7,0,3-1.3,3-3v-29
		C654,474.7,652.6,473.4,651,473.4L651,473.4z"/>
</g>
<g>
	<path class="st2" d="M397.2,232.2c-1.2,0-2.3-1-2.3-2.3V201c0-1.2,1-2.3,2.3-2.3H651c1.2,0,2.3,1,2.3,2.3v29c0,1.2-1,2.3-2.3,2.3
		H397.2V232.2z"/>
	<path class="st3" d="M651,199.5c0.8,0,1.5,0.7,1.5,1.5v29c0,0.8-0.7,1.5-1.5,1.5H397.2c-0.8,0-1.5-0.7-1.5-1.5v-29
		c0-0.8,0.7-1.5,1.5-1.5H651 M651,198H397.2c-1.7,0-3,1.3-3,3v29c0,1.7,1.3,3,3,3H651c1.7,0,3-1.3,3-3v-29
		C654,199.3,652.6,198,651,198L651,198z"/>
</g>
<g>
	<path class="st2" d="M126.9,232.2c-1.2,0-2.3-1-2.3-2.3V201c0-1.2,1-2.3,2.3-2.3h254.3c1.2,0,2.3,1,2.3,2.3v29c0,1.2-1,2.3-2.3,2.3
		H126.9V232.2z"/>
	<path class="st3" d="M381.2,199.5c0.8,0,1.5,0.7,1.5,1.5v29c0,0.8-0.7,1.5-1.5,1.5H126.9c-0.8,0-1.5-0.7-1.5-1.5v-29
		c0-0.8,0.7-1.5,1.5-1.5H381.2 M381.2,198H126.9c-1.7,0-3,1.3-3,3v29c0,1.7,1.3,3,3,3h254.3c1.7,0,3-1.3,3-3v-29
		C384.2,199.3,382.9,198,381.2,198L381.2,198z"/>
</g>
<g>
	<path class="st2" d="M126.9,322.3c-1.2,0-2.3-1-2.3-2.3v-28.9c0-1.2,1-2.3,2.3-2.3h164.3c1.2,0,2.3,1,2.3,2.3V320
		c0,1.2-1,2.3-2.3,2.3l0,0H126.9z"/>
	<path class="st3" d="M126.9,289.6L126.9,289.6h164.3c0.8,0,1.5,0.7,1.5,1.5V320c0,0.4-0.2,0.8-0.4,1.1c-0.2,0.3-0.7,0.4-1.1,0.4
		H126.9c-0.8,0-1.5-0.7-1.5-1.5v-28.9c0-0.4,0.2-0.8,0.4-1.1C126.1,289.8,126.5,289.6,126.9,289.6 M126.9,288.1c-1.7,0-3,1.3-3,3
		V320c0,1.7,1.3,3,3,3h164.3c1.7,0,3-1.3,3-3v-28.9c0-1.7-1.3-3-3-3H126.9L126.9,288.1z"/>
</g>
<g>
	<path class="st2" d="M531.7,455.2c-1.2,0-2.2-1-2.2-2.2V346.7c0-1.2,1-2.2,2.2-2.2h119.4c1.2,0,2.2,1,2.2,2.2V453
		c0,1.2-1,2.2-2.2,2.2H531.7z"/>
	<g>
		<path class="st3" d="M651,345.2L651,345.2c0.8,0,1.5,0.7,1.5,1.5V453c0,0.8-0.7,1.5-1.5,1.5H531.6c-0.8,0-1.5-0.7-1.5-1.5V346.7
			c0-0.8,0.7-1.5,1.5-1.5H651 M651,343.7L651,343.7H531.6c-1.6,0-3,1.3-3,3V453c0,1.6,1.3,3,3,3l0,0H651c1.6,0,3-1.3,3-3V346.7
			C654,345,652.7,343.7,651,343.7L651,343.7z"/>
	</g>
</g>
<g>
	<path class="st2" d="M307.2,322.4c-1.2,0-2.3-1-2.3-2.3v-28.9c0-1.2,1-2.3,2.3-2.3h164.1c1.2,0,2.3,1,2.3,2.3v28.9
		c0,1.2-1,2.3-2.3,2.3l0,0H307.2z"/>
	<g>
		<path class="st3" d="M307.2,289.6L307.2,289.6h164.1c0.8,0,1.5,0.7,1.5,1.5V320c0,0.4-0.2,0.8-0.4,1.1c-0.3,0.3-0.7,0.4-1.1,0.4
			H307.2c-0.8,0-1.5-0.7-1.5-1.5v-28.9c0-0.4,0.2-0.8,0.4-1.1C306.4,289.8,306.8,289.6,307.2,289.6 M307.2,288.1c-1.7,0-3,1.3-3,3
			V320c0,1.7,1.3,3,3,3h164.1c1.7,0,3-1.3,3-3v-28.9c0-1.7-1.3-3-3-3H307.2L307.2,288.1z"/>
	</g>
</g>
<g>
	<path class="st2" d="M487.2,322.4c-1.2,0-2.3-1-2.3-2.3v-28.9c0-1.2,1-2.3,2.3-2.3h163.7c1.2,0,2.3,1,2.3,2.3v28.9
		c0,1.2-1,2.3-2.3,2.3l0,0H487.2z"/>
	<g>
		<path class="st3" d="M487.2,289.7L487.2,289.7h163.7c0.8,0,1.5,0.7,1.5,1.5v28.9c0,0.4-0.2,0.8-0.4,1.1c-0.2,0.3-0.7,0.4-1.1,0.4
			H487.2c-0.8,0-1.5-0.7-1.5-1.5v-28.9c0-0.4,0.2-0.8,0.4-1.1C486.5,289.8,486.8,289.7,487.2,289.7 M487.2,288.2c-1.7,0-3,1.3-3,3
			v28.9c0,1.7,1.3,3,3,3h163.7c1.7,0,3-1.3,3-3v-28.9c0-1.7-1.3-3-3-3H487.2L487.2,288.2z"/>
	</g>
</g>
<line class="st4" x1="654" y1="529" x2="14" y2="529"/>
<line class="st5" x1="524.9" y1="399.7" x2="14" y2="399.7"/>
<g class="st6">
	<path class="st7" d="M243.8,212.3l-2.6,9.7h-1.6l-3.4-12h1.7l2.7,10l2.8-10h1.2l2.8,10l2.6-10h1.7l-3.4,12h-1.6L243.8,212.3z"/>
	<path class="st7" d="M256.2,213.1c2.6,0,4.2,2.1,4.2,4.7v0.3h-7c0.1,1.6,1.3,3,3.1,3c1,0,2-0.4,2.7-1.1l0.6,0.9
		c-0.9,0.9-2,1.3-3.5,1.3c-2.6,0-4.4-1.9-4.4-4.6C251.9,215.1,253.7,213.1,256.2,213.1z M253.3,217.1h5.7c0-1.3-0.9-2.9-2.9-2.9
		C254.3,214.2,253.4,215.8,253.3,217.1z"/>
	<path class="st7" d="M262.5,210h1.4v4.6c0.7-1,1.7-1.5,2.9-1.5c2.3,0,3.9,1.8,3.9,4.6c0,2.8-1.6,4.6-3.9,4.6
		c-1.2,0-2.3-0.6-2.9-1.5v1.3h-1.4V210z M266.5,221c1.8,0,2.8-1.4,2.8-3.3c0-1.9-1-3.4-2.8-3.4c-1.1,0-2.1,0.6-2.6,1.4v3.9
		C264.3,220.4,265.4,221,266.5,221z"/>
</g>
<g class="st6">
	<path class="st7" d="M188.7,298.7h5.3c2.1,0,3.4,1.3,3.4,3.1c0,1.5-1,2.5-2.1,2.8c1.3,0.2,2.3,1.5,2.3,3c0,1.9-1.3,3.2-3.5,3.2
		h-5.5V298.7z M193.8,303.9c1.4,0,2.1-0.8,2.1-1.9c0-1.1-0.7-1.9-2.1-1.9h-3.6v3.9H193.8z M193.9,309.4c1.4,0,2.2-0.8,2.2-2.1
		c0-1.1-0.8-2.1-2.2-2.1h-3.7v4.1H193.9z"/>
	<path class="st7" d="M200,298.7h1.4v12H200V298.7z"/>
	<path class="st7" d="M209.5,309.7c-0.7,0.8-1.7,1.2-2.9,1.2c-1.5,0-3-1-3-2.9c0-1.9,1.6-2.9,3-2.9c1.2,0,2.2,0.4,2.9,1.2v-1.6
		c0-1.2-0.9-1.8-2.2-1.8c-1,0-1.9,0.4-2.7,1.2l-0.6-0.9c0.9-1,2.1-1.4,3.5-1.4c1.8,0,3.4,0.8,3.4,2.9v6h-1.4V309.7z M209.5,307.2
		c-0.5-0.7-1.4-1.1-2.4-1.1c-1.3,0-2.1,0.8-2.1,1.9c0,1.1,0.9,1.9,2.1,1.9c1,0,1.9-0.4,2.4-1.1V307.2z"/>
	<path class="st7" d="M213.1,309.6l4.8-6.5h-4.8V302h6.6v1l-4.8,6.5h4.9v1.2h-6.6V309.6z"/>
	<path class="st7" d="M225.8,301.8c2.6,0,4.2,2.1,4.2,4.7v0.3h-7c0.1,1.6,1.3,3,3.1,3c1,0,2-0.4,2.7-1.1l0.6,0.9
		c-0.9,0.9-2,1.3-3.5,1.3c-2.6,0-4.4-1.9-4.4-4.6C221.5,303.8,223.3,301.8,225.8,301.8z M222.9,305.8h5.7c0-1.3-0.9-2.9-2.9-2.9
		C223.9,302.9,223,304.5,222.9,305.8z"/>
</g>
<g class="st6">
	<path class="st7" d="M367.4,308h-6l-1.1,2.7h-1.7l4.8-12h1.9l4.8,12h-1.7L367.4,308z M361.8,306.7h5.1l-2.5-6.5L361.8,306.7z"/>
	<path class="st7" d="M377.5,305c0-1.5-0.8-2-1.9-2c-1.1,0-2.1,0.6-2.6,1.4v6.4h-1.4V302h1.4v1.3c0.6-0.7,1.8-1.5,3.1-1.5
		c1.8,0,2.8,0.9,2.8,2.8v6.1h-1.3V305z"/>
	<path class="st7" d="M382.3,311.9c0.7,0.9,1.6,1.2,2.8,1.2c1.4,0,2.8-0.7,2.8-2.6v-1.2c-0.6,0.9-1.7,1.5-2.9,1.5
		c-2.3,0-3.9-1.7-3.9-4.5c0-2.8,1.6-4.5,3.9-4.5c1.2,0,2.2,0.6,2.9,1.5V302h1.4v8.4c0,2.9-2,3.8-4.1,3.8c-1.5,0-2.5-0.3-3.5-1.3
		L382.3,311.9z M387.9,304.4c-0.5-0.8-1.5-1.4-2.6-1.4c-1.7,0-2.8,1.4-2.8,3.3c0,1.9,1,3.3,2.8,3.3c1.1,0,2.1-0.7,2.6-1.4V304.4z"/>
	<path class="st7" d="M397.8,309.5c-0.7,0.8-1.8,1.4-3.1,1.4c-1.8,0-2.8-0.9-2.8-2.8V302h1.4v5.7c0,1.5,0.8,2,1.9,2
		c1.1,0,2.1-0.6,2.6-1.3V302h1.3v8.7h-1.3V309.5z"/>
	<path class="st7" d="M401.8,298.7h1.3v12h-1.3V298.7z"/>
	<path class="st7" d="M411.3,309.7c-0.7,0.8-1.7,1.2-2.9,1.2c-1.5,0-3-1-3-2.9c0-1.9,1.6-2.9,3-2.9c1.2,0,2.2,0.4,2.9,1.2v-1.6
		c0-1.2-0.9-1.8-2.2-1.8c-1,0-1.9,0.4-2.7,1.2l-0.6-0.9c0.9-1,2.1-1.4,3.5-1.4c1.8,0,3.4,0.8,3.4,2.9v6h-1.4V309.7z M411.3,307.2
		c-0.5-0.7-1.4-1.1-2.4-1.1c-1.3,0-2.1,0.8-2.1,1.9c0,1.1,0.9,1.9,2.1,1.9c1,0,1.9-0.4,2.4-1.1V307.2z"/>
	<path class="st7" d="M415.4,302h1.3v1.4c0.7-0.9,1.7-1.6,2.9-1.6v1.4c-0.2,0-0.3-0.1-0.5-0.1c-0.8,0-2,0.7-2.4,1.4v6.2h-1.3V302z"
		/>
</g>
<g class="st6">
	<path class="st7" d="M251,366.3c0-3.7,2.7-6.2,6.2-6.2c2.1,0,3.6,1,4.6,2.4l-1.3,0.7c-0.7-1-1.9-1.7-3.3-1.7c-2.6,0-4.6,2-4.6,4.9
		c0,2.8,2,4.9,4.6,4.9c1.4,0,2.6-0.7,3.3-1.7l1.3,0.7c-1,1.4-2.4,2.4-4.6,2.4C253.7,372.5,251,370,251,366.3z"/>
	<path class="st7" d="M263.6,360.2h1.4v12h-1.4V360.2z"/>
	<path class="st7" d="M267.4,361.4c0-0.5,0.4-0.9,0.9-0.9c0.5,0,0.9,0.4,0.9,0.9c0,0.5-0.4,0.9-0.9,0.9
		C267.8,362.3,267.4,361.9,267.4,361.4z M267.6,363.6h1.4v8.7h-1.4V363.6z"/>
	<path class="st7" d="M275.5,363.3c2.6,0,4.2,2.1,4.2,4.7v0.3h-7c0.1,1.6,1.3,3,3.1,3c1,0,2-0.4,2.7-1.1l0.6,0.9
		c-0.9,0.9-2,1.3-3.5,1.3c-2.6,0-4.4-1.9-4.4-4.6C271.2,365.4,273,363.3,275.5,363.3z M272.6,367.4h5.7c0-1.3-0.9-2.9-2.9-2.9
		C273.6,364.5,272.7,366,272.6,367.4z"/>
	<path class="st7" d="M287.7,366.6c0-1.5-0.8-2-1.9-2c-1.1,0-2.1,0.6-2.6,1.4v6.4h-1.4v-8.7h1.4v1.3c0.6-0.7,1.8-1.5,3.1-1.5
		c1.8,0,2.8,0.9,2.8,2.8v6.1h-1.4V366.6z"/>
	<path class="st7" d="M292,370.4v-5.7h-1.4v-1.2h1.4v-2.4h1.4v2.4h1.8v1.2h-1.8v5.4c0,0.6,0.3,1.1,0.9,1.1c0.4,0,0.7-0.2,0.9-0.4
		l0.4,1c-0.3,0.3-0.8,0.6-1.6,0.6C292.6,372.5,292,371.7,292,370.4z"/>
	<path class="st7" d="M301.7,360.2h4.1c3.7,0,6.2,2.6,6.2,6c0,3.4-2.4,6-6.2,6h-4.1V360.2z M305.8,370.9c2.9,0,4.6-2.1,4.6-4.7
		c0-2.6-1.6-4.7-4.6-4.7h-2.6v9.3H305.8z"/>
	<path class="st7" d="M319.7,371.3c-0.7,0.8-1.7,1.2-2.9,1.2c-1.5,0-3-1-3-2.9c0-1.9,1.6-2.9,3-2.9c1.2,0,2.2,0.4,2.9,1.2v-1.6
		c0-1.2-0.9-1.8-2.2-1.8c-1,0-1.9,0.4-2.7,1.2l-0.6-0.9c0.9-1,2.1-1.4,3.5-1.4c1.8,0,3.4,0.8,3.4,2.9v6h-1.4V371.3z M319.7,368.8
		c-0.5-0.7-1.4-1.1-2.4-1.1c-1.3,0-2.1,0.8-2.1,1.9c0,1.1,0.9,1.9,2.1,1.9c1,0,1.9-0.4,2.4-1.1V368.8z"/>
	<path class="st7" d="M324,370.4v-5.7h-1.4v-1.2h1.4v-2.4h1.4v2.4h1.8v1.2h-1.8v5.4c0,0.6,0.3,1.1,0.9,1.1c0.4,0,0.7-0.2,0.9-0.4
		l0.4,1c-0.3,0.3-0.8,0.6-1.6,0.6C324.7,372.5,324,371.7,324,370.4z"/>
	<path class="st7" d="M334.5,371.3c-0.7,0.8-1.7,1.2-2.9,1.2c-1.5,0-3-1-3-2.9c0-1.9,1.6-2.9,3-2.9c1.2,0,2.2,0.4,2.9,1.2v-1.6
		c0-1.2-0.9-1.8-2.2-1.8c-1,0-1.9,0.4-2.7,1.2l-0.6-0.9c0.9-1,2.1-1.4,3.5-1.4c1.8,0,3.4,0.8,3.4,2.9v6h-1.4V371.3z M334.5,368.8
		c-0.5-0.7-1.4-1.1-2.4-1.1c-1.3,0-2.1,0.8-2.1,1.9c0,1.1,0.9,1.9,2.1,1.9c1,0,1.9-0.4,2.4-1.1V368.8z"/>
	<path class="st7" d="M342.7,366.3c0-3.7,2.7-6.2,6.2-6.2c2.1,0,3.6,1,4.6,2.4l-1.3,0.7c-0.7-1-1.9-1.7-3.3-1.7
		c-2.6,0-4.6,2-4.6,4.9c0,2.8,2,4.9,4.6,4.9c1.4,0,2.6-0.7,3.3-1.7l1.3,0.7c-1,1.4-2.4,2.4-4.6,2.4
		C345.5,372.5,342.7,370,342.7,366.3z"/>
	<path class="st7" d="M360.8,371.3c-0.7,0.8-1.7,1.2-2.9,1.2c-1.5,0-3-1-3-2.9c0-1.9,1.6-2.9,3-2.9c1.2,0,2.2,0.4,2.9,1.2v-1.6
		c0-1.2-0.9-1.8-2.2-1.8c-1,0-1.9,0.4-2.7,1.2l-0.6-0.9c0.9-1,2.1-1.4,3.5-1.4c1.8,0,3.4,0.8,3.4,2.9v6h-1.4V371.3z M360.8,368.8
		c-0.5-0.7-1.4-1.1-2.4-1.1c-1.3,0-2.1,0.8-2.1,1.9c0,1.1,0.9,1.9,2.1,1.9c1,0,1.9-0.4,2.4-1.1V368.8z"/>
	<path class="st7" d="M368.7,363.3c1.6,0,2.5,0.6,3.2,1.5l-0.9,0.8c-0.6-0.8-1.3-1.1-2.2-1.1c-1.9,0-3,1.4-3,3.3s1.2,3.4,3,3.4
		c0.9,0,1.6-0.4,2.2-1.1l0.9,0.8c-0.7,0.9-1.6,1.5-3.2,1.5c-2.6,0-4.3-2-4.3-4.6C364.3,365.3,366.1,363.3,368.7,363.3z"/>
	<path class="st7" d="M379.6,366.5c0-1.5-0.8-2-2-2c-1,0-2.1,0.6-2.6,1.4v6.4h-1.4v-12h1.4v4.6c0.6-0.7,1.8-1.5,3.1-1.5
		c1.8,0,2.8,0.9,2.8,2.8v6.1h-1.3V366.5z"/>
	<path class="st7" d="M387.4,363.3c2.6,0,4.2,2.1,4.2,4.7v0.3h-7c0.1,1.6,1.3,3,3.1,3c1,0,2-0.4,2.7-1.1l0.6,0.9
		c-0.9,0.9-2,1.3-3.5,1.3c-2.6,0-4.4-1.9-4.4-4.6C383.2,365.4,385,363.3,387.4,363.3z M384.6,367.4h5.7c0-1.3-0.9-2.9-2.9-2.9
		C385.6,364.5,384.7,366,384.6,367.4z"/>
</g>
<g class="st6">
	<path d="M284,427.5h1.5v10.7h5.6v1.3H284V427.5z"/>
	<path d="M292.9,428.7c0-0.5,0.4-0.9,0.9-0.9c0.5,0,0.9,0.4,0.9,0.9c0,0.5-0.4,0.9-0.9,0.9C293.3,429.6,292.9,429.2,292.9,428.7z
		 M293.1,430.8h1.4v8.7h-1.4V430.8z"/>
	<path d="M295.9,430.8h1.5l2.9,7.1l2.9-7.1h1.5l-3.6,8.7h-1.5L295.9,430.8z"/>
	<path d="M309.8,430.6c2.6,0,4.2,2.1,4.2,4.7v0.3h-7c0.1,1.6,1.3,3,3.1,3c1,0,2-0.4,2.7-1.1l0.6,0.9c-0.9,0.9-2,1.3-3.5,1.3
		c-2.6,0-4.4-1.9-4.4-4.6C305.5,432.6,307.3,430.6,309.8,430.6z M306.9,434.6h5.7c0-1.3-0.9-2.9-2.9-2.9
		C307.9,431.7,307,433.3,306.9,434.6z"/>
	<path d="M322.4,442.8v-4.6c-0.7,1-1.7,1.5-2.9,1.5c-2.3,0-3.9-1.8-3.9-4.6c0-2.8,1.6-4.6,3.9-4.6c1.2,0,2.3,0.6,2.9,1.5v-1.3h1.4
		v12H322.4z M322.4,433.2c-0.5-0.8-1.5-1.4-2.6-1.4c-1.7,0-2.8,1.4-2.8,3.3s1,3.4,2.8,3.4c1.1,0,2.1-0.6,2.6-1.4V433.2z"/>
	<path d="M332.3,438.3c-0.7,0.8-1.8,1.4-3.1,1.4c-1.8,0-2.8-0.9-2.8-2.8v-6.1h1.4v5.7c0,1.5,0.8,2,1.9,2c1.1,0,2.1-0.6,2.6-1.3v-6.4
		h1.4v8.7h-1.4V438.3z"/>
	<path d="M340.2,430.6c2.6,0,4.2,2.1,4.2,4.7v0.3h-7c0.1,1.6,1.3,3,3.1,3c1,0,2-0.4,2.7-1.1l0.6,0.9c-0.9,0.9-2,1.3-3.5,1.3
		c-2.6,0-4.4-1.9-4.4-4.6C335.9,432.6,337.7,430.6,340.2,430.6z M337.3,434.6h5.7c0-1.3-0.9-2.9-2.9-2.9
		C338.3,431.7,337.4,433.3,337.3,434.6z"/>
	<path d="M346.5,430.8h1.3v1.4c0.7-0.9,1.7-1.6,2.9-1.6v1.4c-0.2,0-0.3-0.1-0.5-0.1c-0.8,0-2,0.7-2.4,1.4v6.2h-1.3V430.8z"/>
	<path d="M352.9,441.8c0.6,0,1-0.2,1.3-0.9l0.6-1.3l-3.6-8.8h1.5l2.9,7.1l2.9-7.1h1.5l-4.4,10.5c-0.5,1.3-1.4,1.7-2.6,1.8
		c-0.3,0-0.7-0.1-1-0.1l0.2-1.2C352.4,441.8,352.7,441.8,352.9,441.8z"/>
</g>
<g class="st6">
	<path class="st7" d="M317.7,493.8h-6l-1.1,2.7H309l4.8-12h1.9l4.8,12h-1.7L317.7,493.8z M312.2,492.5h5.1l-2.5-6.5L312.2,492.5z"/>
	<path class="st7" d="M322,499.8v-12h1.4v1.3c0.6-0.9,1.7-1.5,2.9-1.5c2.3,0,3.9,1.7,3.9,4.6c0,2.8-1.6,4.6-3.9,4.6
		c-1.2,0-2.2-0.6-2.9-1.5v4.6H322z M325.9,488.8c-1.1,0-2.1,0.6-2.6,1.4v3.9c0.5,0.8,1.5,1.4,2.6,1.4c1.7,0,2.8-1.4,2.8-3.4
		S327.7,488.8,325.9,488.8z"/>
	<path class="st7" d="M332.3,499.8v-12h1.4v1.3c0.6-0.9,1.7-1.5,2.9-1.5c2.3,0,3.9,1.7,3.9,4.6c0,2.8-1.6,4.6-3.9,4.6
		c-1.2,0-2.2-0.6-2.9-1.5v4.6H332.3z M336.3,488.8c-1.1,0-2.1,0.6-2.6,1.4v3.9c0.5,0.8,1.5,1.4,2.6,1.4c1.7,0,2.8-1.4,2.8-3.4
		S338,488.8,336.3,488.8z"/>
	<path class="st7" d="M357.6,486.6l-4.1,9.9h-0.6l-4.1-9.9v9.9h-1.5v-12h2.1l3.7,9l3.7-9h2.1v12h-1.5V486.6z"/>
	<path class="st7" d="M361.6,485.7c0-0.5,0.4-0.9,0.9-0.9c0.5,0,0.9,0.4,0.9,0.9c0,0.5-0.4,0.9-0.9,0.9
		C362,486.6,361.6,486.2,361.6,485.7z M361.9,487.8h1.4v8.7h-1.4V487.8z"/>
	<path class="st7" d="M369.8,487.6c1.6,0,2.5,0.6,3.2,1.5l-0.9,0.8c-0.6-0.8-1.3-1.1-2.2-1.1c-1.9,0-3,1.4-3,3.3s1.2,3.4,3,3.4
		c0.9,0,1.6-0.4,2.2-1.1l0.9,0.8c-0.7,0.9-1.6,1.5-3.2,1.5c-2.6,0-4.3-2-4.3-4.6C365.4,489.6,367.2,487.6,369.8,487.6z"/>
	<path class="st7" d="M374.8,487.8h1.3v1.4c0.7-0.9,1.7-1.6,2.9-1.6v1.4c-0.2,0-0.3-0.1-0.5-0.1c-0.8,0-2,0.7-2.4,1.4v6.2h-1.3
		V487.8z"/>
	<path class="st7" d="M380.3,492.1c0-2.5,1.7-4.6,4.3-4.6c2.6,0,4.3,2,4.3,4.6s-1.7,4.6-4.3,4.6
		C381.9,496.7,380.3,494.7,380.3,492.1z M387.4,492.1c0-1.8-1-3.3-2.9-3.3s-2.9,1.6-2.9,3.3c0,1.8,1,3.4,2.9,3.4
		S387.4,493.9,387.4,492.1z"/>
	<path class="st7" d="M391,494.4c0.6,0.7,1.7,1.2,2.9,1.2c1.3,0,2.1-0.6,2.1-1.5c0-1-1.1-1.2-2.2-1.5c-1.5-0.3-3.2-0.7-3.2-2.5
		c0-1.4,1.2-2.5,3.2-2.5c1.5,0,2.5,0.6,3.2,1.3l-0.6,0.9c-0.5-0.6-1.5-1.1-2.6-1.1c-1.2,0-1.9,0.6-1.9,1.4c0,0.8,1,1.1,2.1,1.3
		c1.5,0.3,3.3,0.8,3.3,2.7c0,1.5-1.2,2.6-3.4,2.6c-1.4,0-2.6-0.4-3.5-1.4L391,494.4z"/>
	<path class="st7" d="M403.2,487.6c2.6,0,4.2,2.1,4.2,4.7v0.3h-7c0.1,1.6,1.3,3,3.1,3c1,0,2-0.4,2.7-1.1l0.6,0.9
		c-0.9,0.9-2,1.3-3.5,1.3c-2.6,0-4.4-1.9-4.4-4.6C398.9,489.6,400.7,487.6,403.2,487.6z M400.4,491.6h5.7c0-1.3-0.9-2.9-2.9-2.9
		C401.3,488.7,400.4,490.3,400.4,491.6z"/>
	<path class="st7" d="M409.6,487.8h1.3v1.4c0.7-0.9,1.7-1.6,2.9-1.6v1.4c-0.2,0-0.3-0.1-0.5-0.1c-0.8,0-2,0.7-2.4,1.4v6.2h-1.3
		V487.8z"/>
	<path class="st7" d="M414.2,487.8h1.5l2.9,7.1l2.9-7.1h1.5l-3.6,8.7h-1.5L414.2,487.8z"/>
	<path class="st7" d="M424.1,485.7c0-0.5,0.4-0.9,0.9-0.9c0.5,0,0.9,0.4,0.9,0.9c0,0.5-0.4,0.9-0.9,0.9
		C424.5,486.6,424.1,486.2,424.1,485.7z M424.3,487.8h1.3v8.7h-1.3V487.8z"/>
	<path class="st7" d="M432.2,487.6c1.6,0,2.5,0.6,3.2,1.5l-0.9,0.8c-0.6-0.8-1.3-1.1-2.2-1.1c-1.9,0-3,1.4-3,3.3s1.2,3.4,3,3.4
		c0.9,0,1.6-0.4,2.2-1.1l0.9,0.8c-0.7,0.9-1.6,1.5-3.2,1.5c-2.6,0-4.3-2-4.3-4.6C427.9,489.6,429.6,487.6,432.2,487.6z"/>
	<path class="st7" d="M441.1,487.6c2.6,0,4.2,2.1,4.2,4.7v0.3h-7c0.1,1.6,1.3,3,3.1,3c1,0,2-0.4,2.7-1.1l0.6,0.9
		c-0.9,0.9-2,1.3-3.5,1.3c-2.6,0-4.4-1.9-4.4-4.6C436.8,489.6,438.6,487.6,441.1,487.6z M438.2,491.6h5.7c0-1.3-0.9-2.9-2.9-2.9
		C439.2,488.7,438.3,490.3,438.2,491.6z"/>
	<path class="st7" d="M447.4,494.4c0.6,0.7,1.7,1.2,2.9,1.2c1.3,0,2.1-0.6,2.1-1.5c0-1-1.1-1.2-2.2-1.5c-1.5-0.3-3.2-0.7-3.2-2.5
		c0-1.4,1.2-2.5,3.2-2.5c1.5,0,2.5,0.6,3.2,1.3l-0.6,0.9c-0.5-0.6-1.5-1.1-2.6-1.1c-1.2,0-1.9,0.6-1.9,1.4c0,0.8,1,1.1,2.1,1.3
		c1.5,0.3,3.3,0.8,3.3,2.7c0,1.5-1.2,2.6-3.4,2.6c-1.4,0-2.6-0.4-3.5-1.4L447.4,494.4z"/>
</g>
<g class="st6">
	<path class="st7" d="M574.9,392.8h4.1c3.7,0,6.2,2.6,6.2,6c0,3.4-2.4,6-6.2,6h-4.1V392.8z M579,403.5c2.9,0,4.6-2.1,4.6-4.7
		c0-2.6-1.6-4.7-4.6-4.7h-2.6v9.3H579z"/>
	<path class="st7" d="M587.5,392.8h4.1c3.7,0,6.2,2.6,6.2,6c0,3.4-2.4,6-6.2,6h-4.1V392.8z M591.6,403.5c2.9,0,4.6-2.1,4.6-4.7
		c0-2.6-1.6-4.7-4.6-4.7h-2.6v9.3H591.6z"/>
	<path class="st7" d="M600.1,392.8h4.8c2.4,0,3.8,1.7,3.8,3.6c0,2-1.4,3.6-3.8,3.6h-3.3v4.8h-1.5V392.8z M604.7,394.1h-3.2v4.6h3.2
		c1.4,0,2.4-0.9,2.4-2.3S606.1,394.1,604.7,394.1z"/>
</g>
<g class="st6">
	<path class="st7" d="M13.9,383.6c0-3.3,2.4-5.5,5.6-5.5c2.2,0,3.5,1.1,4.3,2.4l-1.6,0.8c-0.5-0.9-1.5-1.6-2.7-1.6
		c-2.1,0-3.7,1.6-3.7,3.9s1.6,3.9,3.7,3.9c1.2,0,2.2-0.7,2.7-1.6l1.6,0.8c-0.8,1.3-2.1,2.4-4.3,2.4
		C16.4,389.1,13.9,386.9,13.9,383.6z"/>
	<path class="st7" d="M25.3,378.2h1.9v9h4.7v1.6h-6.6V378.2z"/>
	<path class="st7" d="M33.6,378.2h1.9v10.7h-1.9V378.2z"/>
	<path class="st7" d="M37.7,378.2H45v1.6h-5.4v2.8h5.3v1.6h-5.3v3H45v1.6h-7.3V378.2z"/>
	<path class="st7" d="M48.8,381.3v7.6h-1.9v-10.7h1.9l5.5,7.4v-7.4h1.9v10.7h-1.8L48.8,381.3z"/>
	<path class="st7" d="M61,379.9h-3.2v-1.6h8.3v1.6h-3.2v9H61V379.9z"/>
</g>
<g class="st6">
	<path class="st7" d="M14.7,418.5c0.7,0.8,1.9,1.5,3.4,1.5c1.5,0,2.1-0.8,2.1-1.5c0-1-1.1-1.2-2.4-1.6c-1.7-0.4-3.8-0.9-3.8-3.2
		c0-1.8,1.6-3.1,3.9-3.1c1.7,0,3,0.5,4,1.5l-1.1,1.4c-0.8-0.8-2-1.2-3.1-1.2c-1.1,0-1.8,0.5-1.8,1.3c0,0.8,1.1,1.1,2.4,1.4
		c1.8,0.4,3.9,1,3.9,3.3c0,1.8-1.2,3.3-4.1,3.3c-2,0-3.4-0.7-4.3-1.7L14.7,418.5z"/>
	<path class="st7" d="M23.9,410.7h7.3v1.6h-5.4v2.8h5.3v1.6h-5.3v3h5.4v1.6h-7.3V410.7z"/>
	<path class="st7" d="M36.9,417.4H35v4h-1.9v-10.7h4.7c2.1,0,3.5,1.4,3.5,3.3c0,1.9-1.2,2.9-2.5,3.1l2.6,4.2h-2.2L36.9,417.4z
		 M37.6,412.4H35v3.4h2.6c1.1,0,1.8-0.7,1.8-1.7S38.6,412.4,37.6,412.4z"/>
	<path class="st7" d="M41.9,410.7H44l3.2,8.6l3.2-8.6h2.1l-4.2,10.7h-2.3L41.9,410.7z"/>
	<path class="st7" d="M53.8,410.7h7.3v1.6h-5.4v2.8H61v1.6h-5.3v3h5.4v1.6h-7.3V410.7z"/>
	<path class="st7" d="M66.7,417.4h-1.9v4H63v-10.7h4.7c2.1,0,3.5,1.4,3.5,3.3c0,1.9-1.2,2.9-2.5,3.1l2.6,4.2h-2.2L66.7,417.4z
		 M67.4,412.4h-2.6v3.4h2.6c1.1,0,1.8-0.7,1.8-1.7S68.5,412.4,67.4,412.4z"/>
</g>
<g class="st6">
	<path class="st7" d="M14.7,547.8c0.7,0.8,1.9,1.5,3.4,1.5c1.5,0,2.1-0.8,2.1-1.5c0-1-1.1-1.2-2.4-1.6c-1.7-0.4-3.8-0.9-3.8-3.2
		c0-1.8,1.6-3.1,3.9-3.1c1.7,0,3,0.5,4,1.5l-1.1,1.4c-0.8-0.8-2-1.2-3.1-1.2c-1.1,0-1.8,0.5-1.8,1.3c0,0.8,1.1,1.1,2.4,1.4
		c1.8,0.4,3.9,1,3.9,3.3c0,1.8-1.2,3.3-4.1,3.3c-2,0-3.4-0.7-4.3-1.7L14.7,547.8z"/>
	<path class="st7" d="M28.9,539.9c3.2,0,5.5,2.3,5.5,5.5s-2.3,5.5-5.5,5.5c-3.2,0-5.5-2.3-5.5-5.5S25.7,539.9,28.9,539.9z
		 M28.9,541.5c-2.2,0-3.5,1.6-3.5,3.9c0,2.2,1.4,3.9,3.5,3.9c2.1,0,3.5-1.7,3.5-3.9C32.4,543.2,31,541.5,28.9,541.5z"/>
	<path class="st7" d="M36.1,540H38v6.4c0,1.7,0.9,2.8,2.7,2.8c1.8,0,2.7-1.1,2.7-2.8V540h1.9v6.5c0,2.7-1.5,4.4-4.6,4.4
		c-3.1,0-4.6-1.8-4.6-4.4V540z"/>
	<path class="st7" d="M51.4,546.7h-1.9v4h-1.9V540h4.7c2.1,0,3.5,1.4,3.5,3.3c0,1.9-1.2,2.9-2.5,3.1l2.6,4.2h-2.2L51.4,546.7z
		 M52.1,541.7h-2.6v3.4h2.6c1.1,0,1.8-0.7,1.8-1.7C53.9,542.3,53.1,541.7,52.1,541.7z"/>
	<path class="st7" d="M57.2,545.4c0-3.3,2.4-5.5,5.6-5.5c2.2,0,3.5,1.1,4.3,2.4l-1.6,0.8c-0.5-0.9-1.5-1.6-2.7-1.6
		c-2.1,0-3.7,1.6-3.7,3.9c0,2.2,1.6,3.9,3.7,3.9c1.2,0,2.2-0.7,2.7-1.6l1.6,0.8c-0.8,1.3-2.1,2.4-4.3,2.4
		C59.7,550.9,57.2,548.7,57.2,545.4z"/>
	<path class="st7" d="M68.6,540h7.3v1.7h-5.4v2.8h5.3v1.7h-5.3v3h5.4v1.6h-7.3V540z"/>
	<path class="st7" d="M78.2,547.8c0.7,0.8,1.9,1.5,3.4,1.5c1.5,0,2.1-0.8,2.1-1.5c0-1-1.1-1.2-2.4-1.6c-1.7-0.4-3.8-0.9-3.8-3.2
		c0-1.8,1.6-3.1,3.9-3.1c1.7,0,3,0.5,4,1.5l-1.1,1.4c-0.8-0.8-2-1.2-3.1-1.2c-1.1,0-1.8,0.5-1.8,1.3c0,0.8,1.1,1.1,2.4,1.4
		c1.8,0.4,3.9,1,3.9,3.3c0,1.8-1.2,3.3-4.1,3.3c-2,0-3.4-0.7-4.3-1.7L78.2,547.8z"/>
</g>
<g class="st6">
	<path class="st7" d="M552,305.9h-2.4v4.8h-1.5v-12h4.8c2.2,0,3.8,1.4,3.8,3.6c0,2.2-1.5,3.3-3.1,3.5l3.2,4.9h-1.8L552,305.9z
		 M552.8,300h-3.2v4.6h3.2c1.4,0,2.4-1,2.4-2.3S554.2,300,552.8,300z"/>
	<path class="st7" d="M562.3,301.8c2.6,0,4.2,2.1,4.2,4.7v0.3h-7c0.1,1.6,1.3,3,3.1,3c1,0,2-0.4,2.7-1.1l0.6,0.9
		c-0.9,0.9-2,1.3-3.5,1.3c-2.6,0-4.4-1.9-4.4-4.6C558,303.8,559.8,301.8,562.3,301.8z M559.4,305.8h5.7c0-1.3-0.9-2.9-2.9-2.9
		C560.4,302.9,559.5,304.5,559.4,305.8z"/>
	<path class="st7" d="M574.1,309.7c-0.7,0.8-1.7,1.2-2.9,1.2c-1.5,0-3-1-3-2.9c0-1.9,1.6-2.9,3-2.9c1.2,0,2.2,0.4,2.9,1.2v-1.6
		c0-1.2-0.9-1.8-2.2-1.8c-1,0-1.9,0.4-2.7,1.2l-0.6-0.9c0.9-1,2.1-1.4,3.5-1.4c1.8,0,3.4,0.8,3.4,2.9v6h-1.4V309.7z M574.1,307.2
		c-0.5-0.7-1.4-1.1-2.4-1.1c-1.3,0-2.1,0.8-2.1,1.9c0,1.1,0.9,1.9,2.1,1.9c1,0,1.9-0.4,2.4-1.1V307.2z"/>
	<path class="st7" d="M581.9,301.8c1.6,0,2.5,0.6,3.2,1.5l-0.9,0.8c-0.6-0.8-1.3-1.1-2.2-1.1c-1.9,0-3,1.4-3,3.3s1.2,3.4,3,3.4
		c0.9,0,1.6-0.4,2.2-1.1l0.9,0.8c-0.7,0.9-1.6,1.5-3.2,1.5c-2.6,0-4.3-2-4.3-4.6C577.6,303.8,579.3,301.8,581.9,301.8z"/>
	<path class="st7" d="M587.3,308.9v-5.7h-1.4V302h1.4v-2.4h1.4v2.4h1.8v1.2h-1.8v5.4c0,0.6,0.3,1.1,0.9,1.1c0.4,0,0.7-0.2,0.9-0.4
		l0.4,1c-0.3,0.3-0.8,0.6-1.6,0.6C587.9,310.9,587.3,310.2,587.3,308.9z"/>
</g>
<g>
	<path class="st0" d="M381.2,574.7H126.9c-1.7,0-3-1.3-3-3v-28.9c0-1.7,1.3-3,3-3h254.3c1.7,0,3,1.3,3,3v28.9
		C384.2,573.4,382.9,574.7,381.2,574.7z"/>
	<g>
		<path class="st1" d="M124.6,557.3c-0.4,0-0.7,0.3-0.7,0.7v4.9l0,0l0,0l0,0l0,0l0,0l0,0l0,0l0,0l0,0l0,0l0,0l0,0l0,0l0,0l0,0l0,0
			c0,2.5,0,4.9,0,4.9c0,0.4,0.3,0.8,0.8,0.8c0.4,0,0.8-0.3,0.8-0.8v-10C125.4,557.6,125,557.3,124.6,557.3L124.6,557.3z
			 M128.5,573.2c-0.4,0-0.8,0.3-0.8,0.7s0.3,0.8,0.7,0.8h10c0.4,0,0.8-0.3,0.8-0.7s-0.3-0.8-0.7-0.8H128.5L128.5,573.2z
			 M148.5,573.2c-0.4,0-0.8,0.3-0.8,0.7s0.3,0.8,0.7,0.8h10c0.4,0,0.8-0.3,0.8-0.7s-0.3-0.8-0.7-0.8H148.5L148.5,573.2z
			 M168.5,573.2c-0.4,0-0.8,0.3-0.8,0.7s0.3,0.8,0.7,0.8h10c0.4,0,0.8-0.3,0.8-0.7s-0.3-0.8-0.7-0.8H168.5L168.5,573.2z
			 M188.5,573.2c-0.4,0-0.8,0.3-0.8,0.7s0.3,0.8,0.7,0.8h10c0.4,0,0.8-0.3,0.8-0.7s-0.3-0.8-0.7-0.8H188.5L188.5,573.2z
			 M208.5,573.2c-0.4,0-0.8,0.3-0.8,0.7s0.3,0.8,0.7,0.8h10c0.4,0,0.8-0.3,0.8-0.7s-0.3-0.8-0.7-0.8H208.5L208.5,573.2z
			 M228.5,573.2c-0.4,0-0.8,0.3-0.8,0.7s0.3,0.8,0.7,0.8h10c0.4,0,0.8-0.3,0.8-0.7s-0.3-0.8-0.7-0.8H228.5L228.5,573.2z
			 M248.5,573.2c-0.4,0-0.8,0.3-0.8,0.7s0.3,0.8,0.7,0.8h10c0.4,0,0.8-0.3,0.8-0.7s-0.3-0.8-0.7-0.8H248.5L248.5,573.2z
			 M268.5,573.2c-0.4,0-0.8,0.3-0.8,0.7s0.3,0.8,0.7,0.8h10c0.4,0,0.8-0.3,0.8-0.7s-0.3-0.8-0.7-0.8H268.5L268.5,573.2z
			 M288.5,573.2c-0.4,0-0.8,0.3-0.8,0.7s0.3,0.8,0.7,0.8h10c0.4,0,0.8-0.3,0.8-0.7s-0.3-0.8-0.7-0.8H288.5L288.5,573.2z
			 M308.5,573.2c-0.4,0-0.8,0.3-0.8,0.7s0.3,0.8,0.7,0.8h10c0.4,0,0.8-0.3,0.8-0.7s-0.3-0.8-0.7-0.8H308.5L308.5,573.2z
			 M328.5,573.2c-0.4,0-0.8,0.3-0.8,0.7s0.3,0.8,0.7,0.8h10c0.4,0,0.8-0.3,0.8-0.7s-0.3-0.8-0.7-0.8H328.5L328.5,573.2z
			 M348.5,573.2c-0.4,0-0.8,0.3-0.8,0.7s0.3,0.8,0.7,0.8h10c0.4,0,0.8-0.3,0.8-0.7s-0.3-0.8-0.7-0.8H348.5L348.5,573.2z
			 M368.5,573.2c-0.4,0-0.8,0.3-0.8,0.7s0.3,0.8,0.7,0.8h1.1l0,0h8.9c0.4,0,0.7-0.3,0.7-0.7s-0.3-0.8-0.7-0.8H368.5L368.5,573.2z
			 M383.5,558.4c-0.4,0-0.7,0.3-0.7,0.8v10c0,0.4,0.3,0.8,0.8,0.8s0.8-0.3,0.8-0.8c0,0,0-1.2,0-2.7l0,0l0,0l0,0l0,0l0,0l0,0l0,0l0,0
			v-0.1l0,0v-7.1C384.2,558.7,383.9,558.4,383.5,558.4L383.5,558.4z M382,539.9c-0.3,0-0.6,0.2-0.7,0.5c-0.1,0.4,0,0.8,0.4,1
			c0.6,0.2,1,0.8,1,1.4v6.4c0,0.4,0.3,0.8,0.8,0.8s0.8-0.3,0.8-0.8v-6.4l0,0l0,0l0,0l0,0l0,0l0,0l0,0l0,0l0,0l0,0l0,0l0,0l0,0l0,0
			l0,0l0,0l0,0l0,0l0,0l0,0l0,0l0,0l0,0l0,0l0,0l0,0l0,0l0,0l0,0l0,0l0,0l0,0l0,0l0,0l0,0l0,0l0,0l0,0l0,0l0,0l0,0l0,0l0,0l0,0l0,0
			l0,0l0,0l0,0l0,0l0,0l0,0l0,0l0,0l0,0l0,0l0,0l0,0l0,0l0,0l0,0l0,0l0,0l0,0l0,0l0,0l0,0l0,0l0,0l0,0l0,0l0,0l0,0l0,0l0,0l0,0l0,0
			l0,0l0,0l0,0l0,0l0,0l0,0l0,0l0,0l0,0l0,0l0,0l0,0l0,0l0,0l0,0l0,0l0,0l0,0l0,0l0,0l0,0l0,0c-0.2-1-0.9-1.9-1.9-2.2
			C382.2,539.9,382.1,539.9,382,539.9L382,539.9z M362.3,539.8c-0.4,0-0.8,0.3-0.8,0.7s0.3,0.8,0.7,0.8h10c0.4,0,0.8-0.3,0.8-0.7
			s-0.3-0.8-0.7-0.8H362.3L362.3,539.8z M342.3,539.8c-0.4,0-0.8,0.3-0.8,0.7s0.3,0.8,0.7,0.8h10c0.4,0,0.8-0.3,0.8-0.7
			s-0.3-0.8-0.7-0.8H342.3L342.3,539.8z M322.3,539.8c-0.4,0-0.8,0.3-0.8,0.7s0.3,0.8,0.7,0.8h10c0.4,0,0.8-0.3,0.8-0.7
			s-0.3-0.8-0.7-0.8H322.3L322.3,539.8z M302.3,539.8c-0.4,0-0.8,0.3-0.8,0.7s0.3,0.8,0.7,0.8h10c0.4,0,0.8-0.3,0.8-0.7
			s-0.3-0.8-0.7-0.8H302.3L302.3,539.8z M282.3,539.8c-0.4,0-0.8,0.3-0.8,0.7s0.3,0.8,0.7,0.8h10c0.4,0,0.8-0.3,0.8-0.7
			s-0.3-0.8-0.7-0.8H282.3L282.3,539.8z M262.3,539.7c-0.4,0-0.8,0.3-0.8,0.7s0.3,0.8,0.7,0.8h10c0.4,0,0.8-0.3,0.8-0.7
			s-0.3-0.8-0.7-0.8H262.3L262.3,539.7z M242.3,539.7c-0.4,0-0.8,0.3-0.8,0.7s0.3,0.8,0.7,0.8h10c0.4,0,0.8-0.3,0.8-0.7
			s-0.3-0.8-0.7-0.8H242.3L242.3,539.7z M222.3,539.7c-0.4,0-0.8,0.3-0.8,0.7s0.3,0.8,0.7,0.8h10c0.4,0,0.8-0.3,0.8-0.7
			s-0.3-0.8-0.7-0.8H222.3L222.3,539.7z M202.3,539.7c-0.4,0-0.8,0.3-0.8,0.7s0.3,0.8,0.7,0.8h10c0.4,0,0.8-0.3,0.8-0.7
			s-0.3-0.8-0.7-0.8H202.3L202.3,539.7z M182.3,539.7c-0.4,0-0.8,0.3-0.8,0.7s0.3,0.8,0.7,0.8h10c0.4,0,0.8-0.3,0.8-0.7
			s-0.3-0.8-0.7-0.8H182.3L182.3,539.7z M162.3,539.7c-0.4,0-0.7,0.3-0.8,0.7c0,0.4,0.3,0.8,0.7,0.8h10c0.4,0,0.8-0.3,0.8-0.7
			s-0.3-0.8-0.7-0.8c0,0-1.4,0-3.1,0l0,0c-0.3,0-0.6,0-0.9,0l0,0c-0.1,0-0.3,0-0.4,0h-0.6c-0.1,0-0.2,0-0.3,0h-0.1
			c-0.1,0-0.3,0-0.4,0l0,0c-0.3,0-0.6,0-0.8,0h-0.3c-0.2,0-0.4,0-0.6,0h-0.1c-0.1,0-0.2,0-0.3,0h-0.8h-0.1h-0.2c-0.1,0-0.1,0-0.2,0
			H163h-0.1H162.3L162.3,539.7z M142.3,539.7c-0.4,0-0.7,0.3-0.7,0.7s0.3,0.8,0.7,0.8h10c0.4,0,0.8-0.3,0.8-0.7s-0.3-0.7-0.7-0.8
			H142.3L142.3,539.7z M126.9,539.7c-0.8,0-1.6,0.3-2.1,0.9c-0.5,0.5-0.9,1.3-0.9,2.1l0,0v5.3c0,0.4,0.3,0.8,0.8,0.8
			s0.8-0.3,0.8-0.8v-5.3c0-0.4,0.2-0.8,0.4-1.1c0.3-0.3,0.7-0.4,1.1-0.4l0,0l0,0h5.4c0.4,0,0.8-0.3,0.8-0.7s-0.3-0.7-0.7-0.8h-4.2
			c0,0,0,0-0.1,0h-0.7h-0.1h-0.1C126.9,539.7,126.9,539.7,126.9,539.7L126.9,539.7L126.9,539.7z"/>
	</g>
</g>
<g>
	<path class="st0" d="M651,574.7H397.2c-1.7,0-3-1.3-3-3v-28.9c0-1.7,1.3-3,3-3H651c1.7,0,3,1.3,3,3v28.9
		C654,573.4,652.6,574.7,651,574.7z"/>
	<g>
		<path class="st1" d="M394.9,557.3c-0.4,0-0.7,0.3-0.8,0.7v4.9l0,0l0,0l0,0l0,0l0,0l0,0l0,0l0,0l0,0l0,0l0,0l0,0l0,0l0,0l0,0l0,0
			c0,2.5,0,4.9,0,4.9c0,0.4,0.3,0.8,0.8,0.8c0.4,0,0.8-0.3,0.8-0.8v-10C395.7,557.6,395.4,557.3,394.9,557.3L394.9,557.3z
			 M398.8,573.2c-0.4,0-0.8,0.3-0.8,0.7s0.3,0.8,0.7,0.8h10c0.4,0,0.8-0.3,0.8-0.7s-0.3-0.8-0.7-0.8H398.8L398.8,573.2z
			 M418.8,573.2c-0.4,0-0.8,0.3-0.8,0.7s0.3,0.8,0.7,0.8h10c0.4,0,0.8-0.3,0.8-0.7s-0.3-0.8-0.7-0.8H418.8L418.8,573.2z
			 M438.8,573.2c-0.4,0-0.8,0.3-0.8,0.7s0.3,0.7,0.7,0.8h10c0.4,0,0.7-0.3,0.7-0.7s-0.3-0.8-0.7-0.8H438.8L438.8,573.2z
			 M458.8,573.2c-0.4,0-0.8,0.3-0.8,0.7s0.3,0.7,0.7,0.8h10c0.4,0,0.7-0.3,0.7-0.7s-0.3-0.8-0.7-0.8H458.8L458.8,573.2z
			 M478.8,573.2c-0.4,0-0.8,0.3-0.8,0.7s0.3,0.7,0.7,0.8h10c0.4,0,0.7-0.3,0.7-0.7s-0.3-0.8-0.7-0.8H478.8L478.8,573.2z
			 M498.8,573.2c-0.4,0-0.8,0.3-0.8,0.7s0.3,0.8,0.7,0.8h10c0.4,0,0.8-0.3,0.8-0.7s-0.3-0.8-0.7-0.8H498.8L498.8,573.2z
			 M518.8,573.2c-0.4,0-0.8,0.3-0.8,0.7s0.3,0.8,0.7,0.8h10c0.4,0,0.8-0.3,0.8-0.7s-0.3-0.8-0.7-0.8H518.8L518.8,573.2z
			 M538.8,573.2c-0.4,0-0.8,0.3-0.8,0.7s0.3,0.8,0.7,0.8h10c0.4,0,0.8-0.3,0.8-0.7s-0.3-0.8-0.7-0.8H538.8L538.8,573.2z
			 M558.8,573.2c-0.4,0-0.8,0.3-0.8,0.7s0.3,0.7,0.7,0.8h10c0.4,0,0.7-0.3,0.7-0.7s-0.3-0.8-0.7-0.8H558.8L558.8,573.2z
			 M578.8,573.2c-0.4,0-0.8,0.3-0.8,0.7s0.3,0.7,0.7,0.8h10c0.4,0,0.7-0.3,0.7-0.7s-0.3-0.8-0.7-0.8H578.8L578.8,573.2z
			 M598.8,573.2c-0.4,0-0.8,0.3-0.8,0.7s0.3,0.7,0.7,0.8h10c0.4,0,0.7-0.3,0.8-0.7c0-0.4-0.3-0.8-0.7-0.8H598.8L598.8,573.2z
			 M618.8,573.2c-0.4,0-0.8,0.3-0.8,0.7s0.3,0.8,0.7,0.8h10c0.4,0,0.8-0.3,0.8-0.7s-0.3-0.8-0.7-0.8H618.8L618.8,573.2z
			 M638.8,573.2c-0.4,0-0.8,0.3-0.8,0.7s0.3,0.8,0.7,0.8h10c0.4,0,0.8-0.3,0.8-0.7s-0.3-0.8-0.7-0.8H638.8L638.8,573.2z
			 M653.2,557.9c-0.4,0-0.8,0.3-0.8,0.8v10c0,0.4,0.3,0.8,0.8,0.8c0.4,0,0.7-0.3,0.8-0.7v-1l0,0l0,0l0,0l0,0l0,0l0,0l0,0l0,0v-0.1
			l0,0c0-2.7,0-8.8,0-8.8C654,558.2,653.7,557.9,653.2,557.9L653.2,557.9z M651.4,539.8c-0.4,0-0.7,0.3-0.7,0.6
			c-0.1,0.4,0.2,0.8,0.6,0.9c0.7,0.1,1.2,0.8,1.2,1.5v5.8c0,0.4,0.3,0.8,0.8,0.8c0.4,0,0.8-0.3,0.8-0.8v-5.8l0,0l0,0l0,0l0,0l0,0
			l0,0l0,0l0,0l0,0l0,0l0,0l0,0l0,0l0,0l0,0l0,0l0,0l0,0l0,0l0,0l0,0l0,0l0,0l0,0l0,0l0,0l0,0l0,0l0,0l0,0l0,0l0,0l0,0l0,0l0,0l0,0
			l0,0l0,0l0,0l0,0l0,0l0,0l0,0l0,0l0,0l0,0l0,0l0,0l0,0l0,0l0,0l0,0l0,0l0,0l0,0l0,0l0,0l0,0l0,0l0,0l0,0l0,0l0,0l0,0l0,0l0,0l0,0
			l0,0l0,0l0,0l0,0l0,0l0,0l0,0l0,0l0,0l0,0l0,0l0,0l0,0l0,0l0,0l0,0l0,0l0,0l0,0l0,0l0,0l0,0l0,0l0,0l0,0l0,0l0,0l0,0l0,0l0,0l0,0
			l0,0l0,0l0,0l0,0l0,0l0,0l0,0l0,0l0,0l0,0l0,0l0,0l0,0l0,0l0,0l0,0l0,0l0,0l0,0l0,0l0,0l0,0l0,0l0,0l0,0l0,0l0,0l0,0l0,0l0,0l0,0
			l0,0l0,0l0,0l0,0l0,0l0,0l0,0l0,0l0,0l0,0l0,0l0,0l0,0l0,0l0,0l0,0l0,0l0,0l0,0l0,0l0,0l0,0l0,0l0,0l0,0l0,0l0,0l0,0l0,0l0,0l0,0
			l0,0l0,0l0,0l0,0l0,0l0,0l0,0l0,0l0,0l0,0l0,0l0,0l0,0l0,0l0,0l0,0l0,0l0,0l0,0l0,0l0,0l0,0l0,0l0,0l0,0l0,0l0,0l0,0l0,0l0,0l0,0
			l0,0l0,0l0,0l0,0l0,0l0,0l0,0l0,0l0,0l0,0l0,0l0,0l0,0l0,0l0,0l0,0l0,0l0,0l0,0l0,0l0,0l0,0l0,0l0,0l0,0l0,0l0,0l0,0l0,0l0,0l0,0
			l0,0l0,0l0,0l0,0l0,0l0,0l0,0l0,0l0,0l0,0l0,0l0,0l0,0l0,0l0,0l0,0l0,0l0,0l0,0l0,0l0,0l0,0l0,0l0,0l0,0l0,0l0,0l0,0l0,0l0,0l0,0
			l0,0l0,0l0,0l0,0l0,0l0,0l0,0l0,0l0,0l0,0l0,0l0,0l0,0l0,0l0,0l0,0l0,0l0,0l0,0l0,0l0,0l0,0l0,0l0,0l0,0l0,0l0,0l0,0l0,0l0,0l0,0
			l0,0l0,0l0,0l0,0l0,0l0,0l0,0l0,0l0,0l0,0l0,0l0,0l0,0l0,0l0,0l0,0l0,0l0,0l0,0l0,0l0,0l0,0l0,0l0,0l0,0l0,0l0,0l0,0l0,0l0,0l0,0
			l0,0l0,0l0,0l0,0l0,0l0,0l0,0l0,0c-0.4-0.6-1.1-1.1-1.9-1.2C651.5,539.8,651.4,539.8,651.4,539.8L651.4,539.8z M631.5,539.8
			c-0.4,0-0.7,0.3-0.7,0.7s0.3,0.8,0.7,0.8h10c0.4,0,0.8-0.3,0.8-0.7s-0.3-0.7-0.7-0.8H631.5L631.5,539.8z M611.5,539.8
			c-0.4,0-0.7,0.3-0.7,0.7s0.3,0.8,0.7,0.8h10c0.4,0,0.8-0.3,0.8-0.7s-0.3-0.7-0.7-0.8H611.5L611.5,539.8z M591.5,539.8
			c-0.4,0-0.8,0.3-0.8,0.7s0.3,0.8,0.7,0.8h10c0.4,0,0.8-0.3,0.8-0.7s-0.3-0.7-0.7-0.8h-4.1c-0.1,0-0.2,0-0.3,0h-0.3
			C594.2,539.8,591.5,539.8,591.5,539.8L591.5,539.8z M571.5,539.8c-0.4,0-0.8,0.3-0.8,0.7s0.3,0.8,0.7,0.8h10
			c0.4,0,0.8-0.3,0.8-0.7s-0.3-0.8-0.7-0.8H571.5L571.5,539.8z M551.5,539.8c-0.4,0-0.8,0.3-0.8,0.7s0.3,0.8,0.7,0.8h10
			c0.4,0,0.8-0.3,0.8-0.7s-0.3-0.8-0.7-0.8H551.5L551.5,539.8z M531.5,539.8c-0.4,0-0.7,0.3-0.7,0.7s0.3,0.8,0.7,0.8h10
			c0.4,0,0.8-0.3,0.8-0.7s-0.3-0.8-0.7-0.8c0,0-2.6,0-5.2,0H531.5L531.5,539.8z M511.5,539.8c-0.4,0-0.7,0.3-0.7,0.7
			s0.3,0.8,0.7,0.8h10c0.4,0,0.8-0.3,0.8-0.7s-0.3-0.7-0.7-0.8H511.5L511.5,539.8z M491.5,539.8c-0.4,0-0.7,0.3-0.7,0.7
			s0.3,0.8,0.7,0.8h10c0.4,0,0.8-0.3,0.8-0.7s-0.3-0.7-0.7-0.8H491.5L491.5,539.8z M471.5,539.8c-0.4,0-0.8,0.3-0.8,0.7
			s0.3,0.8,0.7,0.8h10c0.4,0,0.8-0.3,0.8-0.7s-0.3-0.7-0.7-0.8h-1c0,0-0.1,0-0.2,0h-0.1c-0.1,0-0.1,0-0.2,0h-0.2
			C477.1,539.8,471.5,539.8,471.5,539.8L471.5,539.8z M451.5,539.8c-0.4,0-0.8,0.3-0.8,0.7s0.3,0.8,0.7,0.8h10
			c0.4,0,0.8-0.3,0.8-0.7s-0.3-0.8-0.7-0.8H451.5L451.5,539.8z M431.5,539.8c-0.4,0-0.8,0.3-0.8,0.7s0.3,0.8,0.7,0.8h10
			c0.4,0,0.8-0.3,0.8-0.7s-0.3-0.8-0.7-0.8H431.5L431.5,539.8z M411.5,539.8c-0.4,0-0.7,0.3-0.7,0.7s0.3,0.8,0.7,0.8h10
			c0.4,0,0.8-0.3,0.8-0.7s-0.3-0.8-0.7-0.8c0,0-2.8,0-5.5,0H411.5L411.5,539.8z M397.2,539.8c-0.8,0-1.6,0.3-2.1,0.9
			c-0.1,0.1-0.1,0.1-0.2,0.2l0,0l0,0c-0.2,0.2-0.3,0.4-0.4,0.6c-0.2,0.4-0.3,0.9-0.3,1.4l0,0v5.3c0,0.4,0.3,0.8,0.8,0.8
			c0.4,0,0.8-0.3,0.8-0.8v-5.3c0-0.4,0.2-0.8,0.4-1.1s0.7-0.4,1.1-0.4l0,0h4.3c0.4,0,0.8-0.3,0.8-0.7c0-0.4-0.3-0.7-0.7-0.8
			L397.2,539.8L397.2,539.8z"/>
	</g>
</g>
<g class="st6">
	<path class="st7" d="M217.8,550.3h4.1c3.7,0,6.2,2.6,6.2,6c0,3.4-2.4,6-6.2,6h-4.1V550.3z M222,561c2.9,0,4.6-2.1,4.6-4.7
		c0-2.6-1.6-4.7-4.6-4.7h-2.6v9.3H222z"/>
	<path class="st7" d="M235.8,561.3c-0.7,0.8-1.7,1.2-2.9,1.2c-1.5,0-3-1-3-2.9c0-1.9,1.6-2.9,3-2.9c1.2,0,2.2,0.4,2.9,1.2v-1.6
		c0-1.2-0.9-1.8-2.2-1.8c-1,0-1.9,0.4-2.7,1.2l-0.6-0.9c0.9-1,2.1-1.4,3.5-1.4c1.8,0,3.4,0.8,3.4,2.9v6h-1.4V561.3z M235.8,558.8
		c-0.5-0.7-1.4-1.1-2.4-1.1c-1.3,0-2.1,0.8-2.1,1.9c0,1.1,0.9,1.9,2.1,1.9c1,0,1.9-0.4,2.4-1.1V558.8z"/>
	<path class="st7" d="M240.1,560.5v-5.7h-1.4v-1.2h1.4v-2.4h1.4v2.4h1.8v1.2h-1.8v5.4c0,0.6,0.3,1.1,0.9,1.1c0.4,0,0.7-0.2,0.9-0.4
		l0.4,1c-0.3,0.3-0.8,0.6-1.6,0.6C240.8,562.5,240.1,561.8,240.1,560.5z"/>
	<path class="st7" d="M250.6,561.3c-0.7,0.8-1.7,1.2-2.9,1.2c-1.5,0-3-1-3-2.9c0-1.9,1.6-2.9,3-2.9c1.2,0,2.2,0.4,2.9,1.2v-1.6
		c0-1.2-0.9-1.8-2.2-1.8c-1,0-1.9,0.4-2.7,1.2l-0.6-0.9c0.9-1,2.1-1.4,3.5-1.4c1.8,0,3.4,0.8,3.4,2.9v6h-1.4V561.3z M250.6,558.8
		c-0.5-0.7-1.4-1.1-2.4-1.1c-1.3,0-2.1,0.8-2.1,1.9c0,1.1,0.9,1.9,2.1,1.9c1,0,1.9-0.4,2.4-1.1V558.8z"/>
	<path class="st7" d="M254.7,550.3h1.4v4.6c0.7-1,1.7-1.5,2.9-1.5c2.3,0,3.9,1.8,3.9,4.6c0,2.8-1.6,4.6-3.9,4.6
		c-1.2,0-2.3-0.6-2.9-1.5v1.3h-1.4V550.3z M258.6,561.3c1.8,0,2.8-1.4,2.8-3.3c0-1.9-1-3.4-2.8-3.4c-1.1,0-2.1,0.6-2.6,1.4v3.9
		C256.5,560.7,257.5,561.3,258.6,561.3z"/>
	<path class="st7" d="M270.4,561.3c-0.7,0.8-1.7,1.2-2.9,1.2c-1.5,0-3-1-3-2.9c0-1.9,1.6-2.9,3-2.9c1.2,0,2.2,0.4,2.9,1.2v-1.6
		c0-1.2-0.9-1.8-2.2-1.8c-1,0-1.9,0.4-2.7,1.2l-0.6-0.9c0.9-1,2.1-1.4,3.5-1.4c1.8,0,3.4,0.8,3.4,2.9v6h-1.4V561.3z M270.4,558.8
		c-0.5-0.7-1.4-1.1-2.4-1.1c-1.3,0-2.1,0.8-2.1,1.9c0,1.1,0.9,1.9,2.1,1.9c1,0,1.9-0.4,2.4-1.1V558.8z"/>
	<path class="st7" d="M274.4,560.2c0.6,0.7,1.7,1.2,2.9,1.2c1.3,0,2.1-0.6,2.1-1.5c0-1-1.1-1.2-2.2-1.5c-1.5-0.3-3.2-0.7-3.2-2.5
		c0-1.4,1.2-2.5,3.2-2.5c1.5,0,2.5,0.6,3.2,1.3l-0.6,0.9c-0.5-0.6-1.5-1.1-2.6-1.1c-1.2,0-1.9,0.6-1.9,1.4c0,0.8,1,1.1,2.1,1.3
		c1.5,0.3,3.3,0.8,3.3,2.7c0,1.5-1.2,2.6-3.4,2.6c-1.4,0-2.6-0.4-3.5-1.4L274.4,560.2z"/>
	<path class="st7" d="M286.6,553.4c2.6,0,4.2,2.1,4.2,4.7v0.3h-7c0.1,1.6,1.3,3,3.1,3c1,0,2-0.4,2.7-1.1l0.6,0.9
		c-0.9,0.9-2,1.3-3.5,1.3c-2.6,0-4.4-1.9-4.4-4.6C282.4,555.4,284.2,553.4,286.6,553.4z M283.8,557.4h5.7c0-1.3-0.9-2.9-2.9-2.9
		C284.8,554.5,283.9,556.1,283.8,557.4z"/>
</g>
<g class="st6">
	<path class="st7" d="M475.4,557.5H473v4.8h-1.5v-12h4.8c2.2,0,3.8,1.4,3.8,3.6c0,2.2-1.5,3.3-3.1,3.5l3.2,4.9h-1.8L475.4,557.5z
		 M476.1,551.6H473v4.6h3.2c1.4,0,2.4-1,2.4-2.3S477.6,551.6,476.1,551.6z"/>
	<path class="st7" d="M482.4,550.3h7.9v1.3h-6.4v3.9h6.2v1.3h-6.2v4.1h6.4v1.3h-7.9V550.3z"/>
	<path class="st7" d="M492.8,559.5c0.8,0.9,2.1,1.7,3.8,1.7c2.1,0,2.8-1.2,2.8-2.1c0-1.4-1.5-1.8-3-2.3c-1.9-0.5-4.1-1-4.1-3.4
		c0-2,1.8-3.3,4.1-3.3c1.8,0,3.3,0.6,4.3,1.7l-0.9,1.1c-0.9-1-2.2-1.4-3.5-1.4c-1.4,0-2.5,0.8-2.5,1.9c0,1.2,1.4,1.6,2.9,2
		c2,0.5,4.2,1.1,4.2,3.7c0,1.7-1.2,3.5-4.4,3.5c-2.1,0-3.6-0.8-4.6-1.9L492.8,559.5z"/>
	<path class="st7" d="M506.1,551.6h-3.8v-1.3h9.1v1.3h-3.8v10.7h-1.5V551.6z"/>
	<path class="st7" d="M518.2,559.5c0.8,0.9,2.1,1.7,3.8,1.7c2.1,0,2.8-1.2,2.8-2.1c0-1.4-1.5-1.8-3-2.3c-1.9-0.5-4.1-1-4.1-3.4
		c0-2,1.8-3.3,4.1-3.3c1.8,0,3.3,0.6,4.3,1.7l-0.9,1.1c-0.9-1-2.2-1.4-3.5-1.4c-1.4,0-2.5,0.8-2.5,1.9c0,1.2,1.4,1.6,2.9,2
		c2,0.5,4.2,1.1,4.2,3.7c0,1.7-1.2,3.5-4.4,3.5c-2.1,0-3.6-0.8-4.6-1.9L518.2,559.5z"/>
	<path class="st7" d="M532.3,553.4c2.6,0,4.2,2.1,4.2,4.7v0.3h-7c0.1,1.6,1.3,3,3.1,3c1,0,2-0.4,2.7-1.1l0.6,0.9
		c-0.9,0.9-2,1.3-3.5,1.3c-2.6,0-4.4-1.9-4.4-4.6C528,555.4,529.8,553.4,532.3,553.4z M529.4,557.4h5.7c0-1.3-0.9-2.9-2.9-2.9
		C530.4,554.5,529.5,556.1,529.4,557.4z"/>
	<path class="st7" d="M538.7,553.6h1.4v1.4c0.7-0.9,1.7-1.6,2.9-1.6v1.4c-0.2,0-0.3-0.1-0.5-0.1c-0.8,0-2,0.7-2.4,1.4v6.2h-1.4
		V553.6z"/>
	<path class="st7" d="M543.3,553.6h1.5l2.9,7.1l2.9-7.1h1.5l-3.6,8.7h-1.5L543.3,553.6z"/>
	<path class="st7" d="M553.2,551.5c0-0.5,0.4-0.9,0.9-0.9c0.5,0,0.9,0.4,0.9,0.9c0,0.5-0.4,0.9-0.9,0.9
		C553.6,552.4,553.2,552,553.2,551.5z M553.4,553.6h1.4v8.7h-1.4V553.6z"/>
	<path class="st7" d="M561.3,553.4c1.6,0,2.5,0.6,3.2,1.5l-0.9,0.8c-0.6-0.8-1.3-1.1-2.2-1.1c-1.9,0-3,1.4-3,3.3s1.2,3.4,3,3.4
		c0.9,0,1.6-0.4,2.2-1.1l0.9,0.8c-0.7,0.9-1.6,1.5-3.2,1.5c-2.6,0-4.3-2-4.3-4.6C557,555.4,558.7,553.4,561.3,553.4z"/>
	<path class="st7" d="M570.2,553.4c2.6,0,4.2,2.1,4.2,4.7v0.3h-7c0.1,1.6,1.3,3,3.1,3c1,0,2-0.4,2.7-1.1l0.6,0.9
		c-0.9,0.9-2,1.3-3.5,1.3c-2.6,0-4.4-1.9-4.4-4.6C565.9,555.4,567.7,553.4,570.2,553.4z M567.3,557.4h5.7c0-1.3-0.9-2.9-2.9-2.9
		C568.3,554.5,567.4,556.1,567.3,557.4z"/>
	<path class="st7" d="M576.5,560.2c0.6,0.7,1.7,1.2,2.9,1.2c1.3,0,2.1-0.6,2.1-1.5c0-1-1.1-1.2-2.2-1.5c-1.5-0.3-3.2-0.7-3.2-2.5
		c0-1.4,1.2-2.5,3.2-2.5c1.5,0,2.5,0.6,3.2,1.3l-0.6,0.9c-0.5-0.6-1.5-1.1-2.6-1.1c-1.2,0-1.9,0.6-1.9,1.4c0,0.8,1,1.1,2.1,1.3
		c1.5,0.3,3.3,0.8,3.3,2.7c0,1.5-1.2,2.6-3.4,2.6c-1.4,0-2.6-0.4-3.5-1.4L576.5,560.2z"/>
</g>
<g class="st6">
	<path class="st7" d="M296.8,261.5h-6l-1.1,2.7H288l4.8-12h1.9l4.8,12h-1.7L296.8,261.5z M291.2,260.1h5.1l-2.5-6.5L291.2,260.1z"/>
	<path class="st7" d="M301.1,267.5v-12h1.4v1.3c0.6-0.9,1.7-1.5,2.9-1.5c2.3,0,3.9,1.7,3.9,4.6c0,2.8-1.6,4.6-3.9,4.6
		c-1.2,0-2.2-0.6-2.9-1.5v4.6H301.1z M305,256.4c-1.1,0-2.1,0.6-2.6,1.4v3.9c0.5,0.8,1.5,1.4,2.6,1.4c1.7,0,2.8-1.4,2.8-3.4
		S306.8,256.4,305,256.4z"/>
	<path class="st7" d="M311.4,267.5v-12h1.4v1.3c0.6-0.9,1.7-1.5,2.9-1.5c2.3,0,3.9,1.7,3.9,4.6c0,2.8-1.6,4.6-3.9,4.6
		c-1.2,0-2.2-0.6-2.9-1.5v4.6H311.4z M315.3,256.4c-1.1,0-2.1,0.6-2.6,1.4v3.9c0.5,0.8,1.5,1.4,2.6,1.4c1.7,0,2.8-1.4,2.8-3.4
		S317.1,256.4,315.3,256.4z"/>
	<path class="st7" d="M325.9,258.1c0-3.7,2.7-6.2,6.2-6.2c2.1,0,3.6,1,4.6,2.4l-1.3,0.7c-0.7-1-1.9-1.7-3.3-1.7
		c-2.6,0-4.6,2-4.6,4.9c0,2.8,2,4.9,4.6,4.9c1.4,0,2.6-0.7,3.3-1.7l1.3,0.7c-1,1.4-2.4,2.4-4.6,2.4
		C328.7,264.4,325.9,261.8,325.9,258.1z"/>
	<path class="st7" d="M338,259.8c0-2.5,1.7-4.6,4.3-4.6s4.3,2,4.3,4.6s-1.7,4.6-4.3,4.6S338,262.3,338,259.8z M345.2,259.8
		c0-1.8-1-3.3-2.9-3.3s-2.9,1.6-2.9,3.3c0,1.8,1,3.4,2.9,3.4S345.2,261.6,345.2,259.8z"/>
	<path class="st7" d="M359.3,258.2c0-1.1-0.5-1.8-1.6-1.8c-0.9,0-1.9,0.6-2.3,1.3v6.4h-1.4v-5.9c0-1.1-0.5-1.8-1.6-1.8
		c-0.9,0-1.8,0.6-2.3,1.4v6.4h-1.3v-8.7h1.3v1.3c0.4-0.6,1.5-1.5,2.8-1.5c1.3,0,2.1,0.7,2.3,1.6c0.5-0.8,1.7-1.6,2.9-1.6
		c1.6,0,2.4,0.9,2.4,2.6v6.3h-1.3V258.2z"/>
	<path class="st7" d="M363.4,267.5v-12h1.3v1.3c0.6-0.9,1.7-1.5,2.9-1.5c2.3,0,3.9,1.7,3.9,4.6c0,2.8-1.6,4.6-3.9,4.6
		c-1.2,0-2.2-0.6-2.9-1.5v4.6H363.4z M367.3,256.4c-1.1,0-2.1,0.6-2.6,1.4v3.9c0.5,0.8,1.5,1.4,2.6,1.4c1.7,0,2.8-1.4,2.8-3.4
		S369.1,256.4,367.3,256.4z"/>
	<path class="st7" d="M373.2,259.8c0-2.5,1.7-4.6,4.3-4.6c2.6,0,4.3,2,4.3,4.6s-1.7,4.6-4.3,4.6
		C374.9,264.4,373.2,262.3,373.2,259.8z M380.4,259.8c0-1.8-1-3.3-2.9-3.3s-2.9,1.6-2.9,3.3c0,1.8,1,3.4,2.9,3.4
		S380.4,261.6,380.4,259.8z"/>
	<path class="st7" d="M389.9,258.5c0-1.5-0.8-2-1.9-2c-1.1,0-2.1,0.6-2.6,1.4v6.4H384v-8.7h1.4v1.3c0.6-0.7,1.8-1.5,3.1-1.5
		c1.8,0,2.8,0.9,2.8,2.8v6.1h-1.4V258.5z"/>
	<path class="st7" d="M397.7,255.2c2.6,0,4.2,2.1,4.2,4.7v0.3h-7c0.1,1.6,1.3,3,3.1,3c1,0,2-0.4,2.7-1.1l0.6,0.9
		c-0.9,0.9-2,1.3-3.5,1.3c-2.6,0-4.4-1.9-4.4-4.6C393.4,257.3,395.2,255.2,397.7,255.2z M394.8,259.2h5.7c0-1.3-0.9-2.9-2.9-2.9
		C395.8,256.3,394.9,257.9,394.8,259.2z"/>
	<path class="st7" d="M409.9,258.5c0-1.5-0.8-2-1.9-2c-1.1,0-2.1,0.6-2.6,1.4v6.4h-1.4v-8.7h1.4v1.3c0.6-0.7,1.8-1.5,3.1-1.5
		c1.8,0,2.8,0.9,2.8,2.8v6.1h-1.4V258.5z"/>
	<path class="st7" d="M414.2,262.3v-5.7h-1.4v-1.2h1.4v-2.4h1.3v2.4h1.8v1.2h-1.8v5.4c0,0.6,0.3,1.1,0.9,1.1c0.4,0,0.7-0.2,0.9-0.4
		l0.4,1c-0.3,0.3-0.8,0.6-1.6,0.6C414.9,264.4,414.2,263.6,414.2,262.3z"/>
	<path class="st7" d="M419.2,262c0.6,0.7,1.7,1.2,2.9,1.2c1.3,0,2.1-0.6,2.1-1.5c0-1-1.1-1.2-2.2-1.5c-1.5-0.3-3.2-0.7-3.2-2.5
		c0-1.4,1.2-2.5,3.2-2.5c1.5,0,2.5,0.6,3.2,1.3l-0.6,0.9c-0.5-0.6-1.5-1.1-2.6-1.1c-1.2,0-1.9,0.6-1.9,1.4c0,0.8,1,1.1,2.1,1.3
		c1.5,0.3,3.3,0.8,3.3,2.7c0,1.5-1.2,2.6-3.4,2.6c-1.4,0-2.6-0.4-3.5-1.4L419.2,262z"/>
	<path class="st7" d="M442,264.1h-1.9c-0.4-0.3-0.8-0.8-1.3-1.3c-0.9,0.9-2,1.5-3.5,1.5c-2.1,0-3.7-1.1-3.7-3.3
		c0-1.9,1.3-2.8,2.7-3.6c-0.6-0.9-0.9-1.9-0.9-2.7c0-1.6,1.3-2.8,3-2.8c1.6,0,2.7,0.8,2.7,2.4c0,1.8-1.5,2.6-3,3.4
		c0.5,0.6,1,1.3,1.4,1.7c0.5,0.6,1,1.1,1.4,1.6c0.6-1,1.1-2.1,1.3-2.7l1.2,0.5c-0.4,1-0.9,2.1-1.6,3.1
		C440.3,262.6,441.1,263.3,442,264.1z M438,262.1c-0.7-0.7-1.3-1.4-1.7-1.8c-0.5-0.6-1-1.2-1.5-1.9c-1,0.6-1.8,1.4-1.8,2.6
		c0,1.5,1.2,2.3,2.4,2.3C436.5,263.2,437.3,262.7,438,262.1z M435.4,256.8c1.3-0.6,2.4-1.3,2.4-2.5c0-0.9-0.6-1.3-1.4-1.3
		c-0.9,0-1.7,0.7-1.7,1.7C434.7,255.4,435,256.1,435.4,256.8z"/>
	<path class="st7" d="M448.5,252.1h1.5v10.7h5.6v1.3h-7.1V252.1z"/>
	<path class="st7" d="M456.8,259.8c0-2.5,1.7-4.6,4.3-4.6s4.3,2,4.3,4.6s-1.7,4.6-4.3,4.6S456.8,262.3,456.8,259.8z M463.9,259.8
		c0-1.8-1-3.3-2.9-3.3s-2.9,1.6-2.9,3.3c0,1.8,1,3.4,2.9,3.4S463.9,261.6,463.9,259.8z"/>
	<path class="st7" d="M468.2,265.4c0.7,0.9,1.6,1.2,2.8,1.2c1.4,0,2.8-0.7,2.8-2.6v-1.2c-0.6,0.9-1.7,1.5-2.9,1.5
		c-2.3,0-3.9-1.7-3.9-4.5c0-2.8,1.6-4.5,3.9-4.5c1.2,0,2.2,0.6,2.9,1.5v-1.3h1.4v8.4c0,2.9-2,3.8-4.1,3.8c-1.5,0-2.5-0.3-3.5-1.3
		L468.2,265.4z M473.8,257.8c-0.5-0.8-1.5-1.4-2.6-1.4c-1.7,0-2.8,1.4-2.8,3.3c0,1.9,1,3.3,2.8,3.3c1.1,0,2.1-0.7,2.6-1.4V257.8z"/>
	<path class="st7" d="M477.7,253.3c0-0.5,0.4-0.9,0.9-0.9c0.5,0,0.9,0.4,0.9,0.9c0,0.5-0.4,0.9-0.9,0.9
		C478.1,254.2,477.7,253.8,477.7,253.3z M477.9,255.4h1.4v8.7h-1.4V255.4z"/>
	<path class="st7" d="M485.8,255.2c1.6,0,2.5,0.6,3.2,1.5l-0.9,0.8c-0.6-0.8-1.3-1.1-2.2-1.1c-1.9,0-3,1.4-3,3.3s1.2,3.4,3,3.4
		c0.9,0,1.6-0.4,2.2-1.1l0.9,0.8c-0.7,0.9-1.6,1.5-3.2,1.5c-2.6,0-4.3-2-4.3-4.6C481.4,257.2,483.2,255.2,485.8,255.2z"/>
</g>
<g class="st6">
	<path class="st7" d="M509,212.1l-4.1,9.9h-0.6l-4.1-9.9v9.9h-1.5v-12h2.1l3.7,9l3.7-9h2.1v12H509V212.1z"/>
	<path class="st7" d="M512.8,217.7c0-2.5,1.7-4.6,4.3-4.6s4.3,2,4.3,4.6s-1.7,4.6-4.3,4.6S512.8,220.2,512.8,217.7z M520,217.7
		c0-1.8-1-3.3-2.9-3.3s-2.9,1.6-2.9,3.3c0,1.8,1,3.4,2.9,3.4S520,219.4,520,217.7z"/>
	<path class="st7" d="M523.6,210h1.4v4.6c0.7-1,1.7-1.5,2.9-1.5c2.3,0,3.9,1.8,3.9,4.6c0,2.8-1.6,4.6-3.9,4.6
		c-1.2,0-2.3-0.6-2.9-1.5v1.3h-1.4V210z M527.5,221c1.8,0,2.8-1.4,2.8-3.3c0-1.9-1-3.4-2.8-3.4c-1.1,0-2.1,0.6-2.6,1.4v3.9
		C525.4,220.4,526.5,221,527.5,221z"/>
	<path class="st7" d="M533.7,211.2c0-0.5,0.4-0.9,0.9-0.9c0.5,0,0.9,0.4,0.9,0.9c0,0.5-0.4,0.9-0.9,0.9
		C534.1,212.1,533.7,211.7,533.7,211.2z M533.9,213.3h1.3v8.7h-1.3V213.3z"/>
	<path class="st7" d="M538,210h1.3v12H538V210z"/>
	<path class="st7" d="M545.8,213.1c2.6,0,4.2,2.1,4.2,4.7v0.3h-7c0.1,1.6,1.3,3,3.1,3c1,0,2-0.4,2.7-1.1l0.6,0.9
		c-0.9,0.9-2,1.3-3.5,1.3c-2.6,0-4.4-1.9-4.4-4.6C541.5,215.1,543.3,213.1,545.8,213.1z M542.9,217.1h5.7c0-1.3-0.9-2.9-2.9-2.9
		C543.9,214.2,543,215.8,542.9,217.1z"/>
</g>
<line class="st8" x1="534.4" y1="399.7" x2="570.8" y2="399.7"/>
<line class="st8" x1="617.4" y1="399.7" x2="653.8" y2="399.7"/>
</svg>
